<svg width="23" height="23" viewBox="0 0 23 23" fill="none" xmlns="http://www.w3.org/2000/svg">
<path d="M6.67857 6.67863C6.74533 6.61169 6.82465 6.55859 6.91197 6.52235C6.99929 6.48612 7.0929 6.46747 7.18744 6.46747C7.28198 6.46747 7.37559 6.48612 7.46292 6.52235C7.55024 6.55859 7.62955 6.61169 7.69632 6.67863L11.4999 10.4837L15.3036 6.67863C15.3704 6.6118 15.4497 6.55879 15.537 6.52263C15.6244 6.48646 15.7179 6.46784 15.8124 6.46784C15.9069 6.46784 16.0005 6.48646 16.0878 6.52263C16.1752 6.55879 16.2545 6.6118 16.3213 6.67863C16.3881 6.74545 16.4412 6.82479 16.4773 6.9121C16.5135 6.99941 16.5321 7.093 16.5321 7.1875C16.5321 7.28201 16.5135 7.37559 16.4773 7.4629C16.4412 7.55022 16.3881 7.62955 16.3213 7.69638L12.5163 11.5L16.3213 15.3036C16.3881 15.3705 16.4412 15.4498 16.4773 15.5371C16.5135 15.6244 16.5321 15.718 16.5321 15.8125C16.5321 15.907 16.5135 16.0006 16.4773 16.0879C16.4412 16.1752 16.3881 16.2546 16.3213 16.3214C16.2545 16.3882 16.1752 16.4412 16.0878 16.4774C16.0005 16.5135 15.9069 16.5322 15.8124 16.5322C15.7179 16.5322 15.6244 16.5135 15.537 16.4774C15.4497 16.4412 15.3704 16.3882 15.3036 16.3214L11.4999 12.5163L7.69632 16.3214C7.62949 16.3882 7.55016 16.4412 7.46284 16.4774C7.37553 16.5135 7.28195 16.5322 7.18744 16.5322C7.09293 16.5322 6.99935 16.5135 6.91204 16.4774C6.82473 16.4412 6.74539 16.3882 6.67857 16.3214C6.61174 16.2546 6.55873 16.1752 6.52256 16.0879C6.4864 16.0006 6.46778 15.907 6.46778 15.8125C6.46778 15.718 6.4864 15.6244 6.52256 15.5371C6.55873 15.4498 6.61174 15.3705 6.67857 15.3036L10.4836 11.5L6.67857 7.69638C6.61163 7.62961 6.55853 7.5503 6.52229 7.46298C6.48606 7.37566 6.46741 7.28204 6.46741 7.1875C6.46741 7.09296 6.48606 6.99935 6.52229 6.91203C6.55853 6.82471 6.61163 6.74539 6.67857 6.67863Z" fill="black"/>
</svg>
