<svg width="34" height="34" viewBox="0 0 34 34" fill="none" xmlns="http://www.w3.org/2000/svg">
<path d="M17 17C18.4834 17 19.9334 16.5601 21.1668 15.736C22.4001 14.9119 23.3614 13.7406 23.9291 12.3701C24.4968 10.9997 24.6453 9.49168 24.3559 8.03683C24.0665 6.58197 23.3522 5.2456 22.3033 4.1967C21.2544 3.14781 19.918 2.4335 18.4632 2.14411C17.0083 1.85472 15.5003 2.00325 14.1299 2.57091C12.7594 3.13856 11.5881 4.09986 10.764 5.33323C9.93987 6.56659 9.5 8.01664 9.5 9.5C9.50199 11.4885 10.2928 13.395 11.6989 14.8011C13.105 16.2072 15.0115 16.998 17 17ZM17 4.5C17.9889 4.5 18.9556 4.79325 19.7779 5.34265C20.6001 5.89206 21.241 6.67296 21.6194 7.58659C21.9978 8.50022 22.0969 9.50555 21.9039 10.4755C21.711 11.4454 21.2348 12.3363 20.5355 13.0355C19.8363 13.7348 18.9454 14.211 17.9755 14.4039C17.0055 14.5969 16.0002 14.4978 15.0866 14.1194C14.173 13.741 13.3921 13.1001 12.8427 12.2779C12.2932 11.4556 12 10.4889 12 9.5C12 8.17392 12.5268 6.90215 13.4645 5.96447C14.4021 5.02679 15.6739 4.5 17 4.5Z" fill="black"/>
<path d="M17 19.5C14.0173 19.5033 11.1578 20.6896 9.0487 22.7987C6.93963 24.9078 5.75331 27.7673 5.75 30.75C5.75 31.0815 5.8817 31.3995 6.11612 31.6339C6.35054 31.8683 6.66848 32 7 32C7.33152 32 7.64946 31.8683 7.88388 31.6339C8.1183 31.3995 8.25 31.0815 8.25 30.75C8.25 28.4294 9.17187 26.2038 10.8128 24.5628C12.4538 22.9219 14.6794 22 17 22C19.3206 22 21.5462 22.9219 23.1872 24.5628C24.8281 26.2038 25.75 28.4294 25.75 30.75C25.75 31.0815 25.8817 31.3995 26.1161 31.6339C26.3505 31.8683 26.6685 32 27 32C27.3315 32 27.6495 31.8683 27.8839 31.6339C28.1183 31.3995 28.25 31.0815 28.25 30.75C28.2467 27.7673 27.0604 24.9078 24.9513 22.7987C22.8422 20.6896 19.9827 19.5033 17 19.5Z" fill="black"/>
</svg>
