<svg width="24" height="24" viewBox="0 0 24 24" fill="none" xmlns="http://www.w3.org/2000/svg">
<path d="M23.7193 22.3641L17.999 16.6438C19.5578 14.7373 20.3242 12.3046 20.1397 9.84881C19.9552 7.39305 18.8339 5.10215 17.0076 3.44997C15.1814 1.7978 12.79 0.910746 10.3281 0.972301C7.8662 1.03386 5.52213 2.03931 3.78075 3.78069C2.03937 5.52207 1.03392 7.86614 0.972362 10.3281C0.910807 12.79 1.79786 15.1814 3.45004 17.0076C5.10221 18.8338 7.39311 19.9552 9.84887 20.1397C12.3046 20.3242 14.7374 19.5577 16.6439 17.9989L22.3642 23.7192C22.5449 23.8938 22.787 23.9904 23.0383 23.9882C23.2895 23.986 23.5299 23.8852 23.7076 23.7075C23.8853 23.5298 23.9861 23.2895 23.9882 23.0382C23.9904 22.7869 23.8938 22.5449 23.7193 22.3641ZM10.5834 18.25C9.06705 18.25 7.58478 17.8003 6.324 16.9579C5.06322 16.1155 4.08056 14.9181 3.50029 13.5172C2.92002 12.1163 2.7682 10.5748 3.06402 9.08762C3.35984 7.60043 4.09002 6.23436 5.16222 5.16216C6.23442 4.08995 7.60049 3.35977 9.08768 3.06395C10.5749 2.76813 12.1164 2.91996 13.5173 3.50023C14.9182 4.0805 16.1156 5.06316 16.958 6.32394C17.8004 7.58472 18.25 9.06699 18.25 10.5833C18.2478 12.6159 17.4393 14.5647 16.002 16.0019C14.5647 17.4392 12.616 18.2477 10.5834 18.25Z" fill="black"/>
</svg>
